<?xml version="1.0" standalone="no"?>
<!DOCTYPE svg PUBLIC "-//W3C//DTD SVG 20010904//EN"
 "http://www.w3.org/TR/2001/REC-SVG-20010904/DTD/svg10.dtd">
<svg version="1.0" xmlns="http://www.w3.org/2000/svg"
 width="1024.000000pt" height="1024.000000pt" viewBox="0 0 1024.000000 1024.000000"
 preserveAspectRatio="xMidYMid meet">
<metadata>
Created by potrace 1.11, written by Peter Selinger 2001-2013
</metadata>
<g transform="translate(0.000000,1024.000000) scale(0.100000,-0.100000)"
fill="#000000" stroke="none">
<path d="M779 8506 c-2 -3 -24 -7 -49 -11 -151 -21 -327 -113 -449 -236 -112
-111 -205 -282 -226 -414 -3 -16 -8 -43 -12 -60 -8 -34 -11 -5015 -3 -5015 3
0 175 292 383 648 207 356 387 663 399 682 12 19 22 37 23 40 0 7 114 199 136
232 11 15 19 29 19 32 0 3 26 49 58 103 32 54 97 163 144 243 231 390 452 602
802 769 186 90 386 144 581 158 50 4 1403 7 3008 8 l2918 0 -2 465 c-1 477 -5
543 -43 655 -42 122 -107 225 -203 323 -126 127 -239 189 -438 239 -16 4 -695
9 -1509 10 l-1479 4 -564 564 -565 565 -1463 0 c-804 0 -1464 -2 -1466 -4z"/>
<path d="M2639 5116 c-2 -2 -27 -6 -55 -10 -141 -16 -343 -100 -509 -211 -108
-71 -250 -210 -286 -277 -6 -12 -15 -25 -19 -28 -3 -3 -22 -32 -41 -65 -19
-33 -38 -68 -44 -77 -5 -10 -61 -105 -124 -210 -62 -106 -125 -213 -139 -238
-13 -25 -30 -52 -37 -60 -7 -8 -16 -25 -19 -37 -4 -13 -12 -23 -17 -23 -5 0
-9 -4 -9 -10 0 -5 -14 -33 -31 -62 -96 -161 -189 -321 -189 -325 0 -2 -5 -9
-11 -16 -5 -7 -76 -124 -156 -262 -80 -137 -154 -263 -164 -280 -10 -16 -36
-61 -59 -100 -22 -38 -51 -88 -65 -110 -13 -22 -30 -51 -38 -65 -8 -14 -46
-80 -86 -148 -114 -194 -134 -242 -137 -334 -4 -99 15 -159 80 -258 52 -79
117 -128 214 -161 54 -19 143 -19 3686 -16 1997 1 3642 5 3656 9 14 4 39 10
55 14 45 9 151 42 172 53 10 5 54 27 98 48 180 84 370 241 463 381 23 35 42
65 42 67 0 2 28 50 61 107 34 57 69 117 79 133 73 126 94 162 106 175 7 8 14
20 15 25 1 6 7 19 14 30 24 38 178 300 203 345 14 25 33 57 43 72 11 14 19 28
19 31 0 3 24 45 53 94 30 48 80 133 113 188 32 55 67 114 77 130 10 17 20 38
23 48 4 9 10 17 15 17 5 0 9 4 9 9 0 5 28 56 62 113 169 285 318 541 318 548
0 5 3 10 8 12 17 8 108 186 118 233 3 17 5 55 5 85 -4 180 -124 341 -299 401
-53 18 -152 19 -3662 19 -1984 0 -3609 -2 -3611 -4z"/>
</g>
</svg>
