<svg width="598" height="154" viewBox="0 0 598 154" fill="none" xmlns="http://www.w3.org/2000/svg">
<path d="M89.5322 66V36.2102H96.4264V60.3825H111.364V66H89.5322Z" fill="white"/>
<path d="M115.216 66V36.2102H122.11V66H115.216Z" fill="white"/>
<path d="M135.521 48.2112H149.863V53.5734H135.521V48.2112ZM136.032 60.4676H152.246V66H129.18V36.2102H151.692V41.7426H136.032V60.4676Z" fill="white"/>
<path d="M163.902 66V41.8277H154.369V36.2102H180.329V41.8277H170.796V66H163.902Z" fill="white"/>
<path d="M196.775 66.5107C192.547 66.5107 189.242 65.3333 186.859 62.9785C184.476 60.6236 183.284 57.2617 183.284 52.8925V36.2102H190.178V52.6372C190.178 55.4743 190.76 57.517 191.923 58.7653C193.086 60.0137 194.718 60.6378 196.817 60.6378C198.917 60.6378 200.548 60.0137 201.711 58.7653C202.875 57.517 203.456 55.4743 203.456 52.6372V36.2102H210.265V52.8925C210.265 57.2617 209.074 60.6236 206.69 62.9785C204.307 65.3333 201.002 66.5107 196.775 66.5107Z" fill="white"/>
<path d="M226.015 66L213.163 36.2102H220.61L231.845 62.5954H227.462L238.867 36.2102H245.719L232.824 66H226.015Z" fill="white"/>
<path d="M262.301 66.5107C259.946 66.5107 257.762 66.1277 255.748 65.3616C253.762 64.5956 252.031 63.5175 250.556 62.1273C249.109 60.7371 247.974 59.1058 247.151 57.2333C246.357 55.3608 245.959 53.3181 245.959 51.1051C245.959 48.8922 246.357 46.8494 247.151 44.9769C247.974 43.1044 249.123 41.4731 250.598 40.0829C252.073 38.6927 253.804 37.6146 255.79 36.8486C257.776 36.0825 259.932 35.6995 262.259 35.6995C264.614 35.6995 266.77 36.0825 268.727 36.8486C270.713 37.6146 272.43 38.6927 273.877 40.0829C275.352 41.4731 276.501 43.1044 277.324 44.9769C278.147 46.8211 278.558 48.8638 278.558 51.1051C278.558 53.3181 278.147 55.375 277.324 57.2758C276.501 59.1483 275.352 60.7797 273.877 62.1699C272.43 63.5317 270.713 64.5956 268.727 65.3616C266.77 66.1277 264.628 66.5107 262.301 66.5107ZM262.259 60.6378C263.592 60.6378 264.812 60.4109 265.919 59.9569C267.053 59.503 268.046 58.8504 268.898 57.9993C269.749 57.1482 270.401 56.141 270.855 54.9778C271.338 53.8146 271.579 52.5237 271.579 51.1051C271.579 49.6865 271.338 48.3957 270.855 47.2324C270.401 46.0692 269.749 45.062 268.898 44.2109C268.075 43.3598 267.096 42.7072 265.961 42.2533C264.826 41.7994 263.592 41.5724 262.259 41.5724C260.925 41.5724 259.691 41.7994 258.556 42.2533C257.45 42.7072 256.471 43.3598 255.62 44.2109C254.769 45.062 254.102 46.0692 253.62 47.2324C253.166 48.3957 252.939 49.6865 252.939 51.1051C252.939 52.4953 253.166 53.7862 253.62 54.9778C254.102 56.141 254.755 57.1482 255.577 57.9993C256.428 58.8504 257.421 59.503 258.556 59.9569C259.691 60.4109 260.925 60.6378 262.259 60.6378Z" fill="white"/>
<path d="M293.527 66.5107C291.144 66.5107 288.86 66.1986 286.676 65.5744C284.491 64.9219 282.732 64.0849 281.399 63.0636L283.739 57.8716C285.016 58.7795 286.52 59.5314 288.25 60.1272C290.009 60.6946 291.783 60.9783 293.57 60.9783C294.932 60.9783 296.024 60.8506 296.847 60.5953C297.698 60.3116 298.322 59.9286 298.719 59.4462C299.116 58.9639 299.315 58.4107 299.315 57.7865C299.315 56.9921 299.003 56.368 298.379 55.914C297.755 55.4317 296.932 55.0487 295.911 54.765C294.889 54.4529 293.754 54.1692 292.506 53.9139C291.286 53.6301 290.052 53.2897 288.804 52.8925C287.584 52.4953 286.463 51.9846 285.442 51.3604C284.42 50.7363 283.583 49.9135 282.931 48.8922C282.307 47.8708 281.994 46.5657 281.994 44.9769C281.994 43.2747 282.448 41.7284 283.356 40.3382C284.293 38.9197 285.683 37.799 287.527 36.9762C289.399 36.1251 291.74 35.6995 294.549 35.6995C296.421 35.6995 298.265 35.9265 300.081 36.3804C301.897 36.806 303.5 37.4586 304.89 38.3381L302.762 43.5726C301.372 42.7782 299.982 42.1965 298.592 41.8277C297.201 41.4305 295.84 41.2319 294.506 41.2319C293.173 41.2319 292.08 41.388 291.229 41.7C290.378 42.0121 289.768 42.4235 289.399 42.9342C289.031 43.4165 288.846 43.9839 288.846 44.6365C288.846 45.4025 289.158 46.0267 289.782 46.509C290.407 46.9629 291.229 47.3317 292.251 47.6154C293.272 47.8992 294.393 48.1829 295.613 48.4666C296.861 48.7503 298.095 49.0766 299.315 49.4454C300.563 49.8142 301.698 50.3107 302.72 50.9349C303.741 51.559 304.564 52.3818 305.188 53.4032C305.84 54.4245 306.167 55.7154 306.167 57.2758C306.167 58.9497 305.699 60.4818 304.762 61.872C303.826 63.2622 302.422 64.3828 300.549 65.234C298.705 66.0851 296.364 66.5107 293.527 66.5107Z" fill="white"/>
<path d="M319.015 66L332.292 36.2102H339.101L352.422 66H345.187L334.292 39.6999H337.016L326.079 66H319.015ZM325.653 59.6165L327.483 54.382H342.804L344.676 59.6165H325.653Z" fill="white"/>
<path d="M360.187 66V41.8277H350.654V36.2102H376.614V41.8277H367.081V66H360.187Z" fill="white"/>
<path d="M388.72 66L375.868 36.2102H383.315L394.55 62.5954H390.167L401.572 36.2102H408.424L395.529 66H388.72Z" fill="white"/>
<path d="M410.911 66V36.2102H417.805V66H410.911Z" fill="white"/>
<path d="M424.875 66V36.2102H437.77C440.437 36.2102 442.735 36.65 444.664 37.5295C446.593 38.3806 448.083 39.6148 449.132 41.2319C450.182 42.8491 450.707 44.7783 450.707 47.0197C450.707 49.2326 450.182 51.1477 449.132 52.7648C448.083 54.3536 446.593 55.5736 444.664 56.4247C442.735 57.2758 440.437 57.7014 437.77 57.7014H428.705L431.769 54.6799V66H424.875ZM443.813 66L436.365 55.1906H443.728L451.26 66H443.813ZM431.769 55.4459L428.705 52.2116H437.387C439.515 52.2116 441.103 51.7576 442.153 50.8498C443.203 49.9135 443.728 48.6368 443.728 47.0197C443.728 45.3741 443.203 44.0974 442.153 43.1895C441.103 42.2817 439.515 41.8277 437.387 41.8277H428.705L431.769 38.5508V55.4459Z" fill="white"/>
<path d="M476.086 36.2102H482.895V52.8925C482.895 56.3822 482.171 59.1625 480.725 61.2336C479.278 63.3047 477.348 64.78 474.937 65.6595C473.348 66.2553 472.114 66.8369 471.234 67.4044C470.383 67.9718 469.787 68.5108 469.447 69.0215C469.135 69.5322 468.979 70.0429 468.979 70.5536C468.979 71.1494 469.192 71.6175 469.617 71.958C470.043 72.3268 470.639 72.5112 471.405 72.5112C471.887 72.5112 472.355 72.4403 472.809 72.2984C473.263 72.1849 473.646 72.0431 473.958 71.8728L474.937 74.8944C474.426 75.1781 473.788 75.4051 473.022 75.5753C472.256 75.7739 471.461 75.8732 470.639 75.8732C468.794 75.8732 467.347 75.4334 466.298 74.5539C465.276 73.6744 464.766 72.5254 464.766 71.1068C464.766 70.1989 464.993 69.3336 465.447 68.5108C465.901 67.6881 466.61 66.9079 467.574 66.1702C468.539 65.4326 469.773 64.7942 471.277 64.2552L471.362 66.4256C471.022 66.4539 470.695 66.4681 470.383 66.4681C470.071 66.4965 469.745 66.5107 469.404 66.5107C465.177 66.5107 461.872 65.3333 459.489 62.9785C457.105 60.6236 455.914 57.2617 455.914 52.8925V36.2102H462.808V52.6372C462.808 55.4743 463.39 57.517 464.553 58.7653C465.716 60.0137 467.347 60.6378 469.447 60.6378C471.546 60.6378 473.178 60.0137 474.341 58.7653C475.504 57.517 476.086 55.4743 476.086 52.6372V36.2102Z" fill="white"/>
<path d="M89.5322 120V90.2102H103.065C106.3 90.2102 109.151 90.8344 111.619 92.0827C114.088 93.3027 116.017 95.0191 117.407 97.2321C118.797 99.4451 119.492 102.069 119.492 105.105C119.492 108.112 118.797 110.737 117.407 112.978C116.017 115.191 114.088 116.922 111.619 118.17C109.151 119.39 106.3 120 103.065 120H89.5322ZM96.4264 114.34H102.725C104.711 114.34 106.427 113.971 107.874 113.233C109.35 112.467 110.484 111.389 111.279 109.999C112.102 108.609 112.513 106.978 112.513 105.105C112.513 103.204 112.102 101.573 111.279 100.211C110.484 98.8209 109.35 97.757 107.874 97.0193C106.427 96.2533 104.711 95.8703 102.725 95.8703H96.4264V114.34Z" fill="white"/>
<path d="M137.927 120.511C133.699 120.511 130.394 119.333 128.011 116.978C125.628 114.624 124.436 111.262 124.436 106.892V90.2102H131.33V106.637C131.33 109.474 131.912 111.517 133.075 112.765C134.238 114.014 135.87 114.638 137.969 114.638C140.069 114.638 141.7 114.014 142.863 112.765C144.026 111.517 144.608 109.474 144.608 106.637V90.2102H151.417V106.892C151.417 111.262 150.226 114.624 147.842 116.978C145.459 119.333 142.154 120.511 137.927 120.511Z" fill="white"/>
<path d="M172.699 120.511C170.344 120.511 168.16 120.128 166.145 119.362C164.159 118.596 162.429 117.518 160.954 116.127C159.507 114.737 158.372 113.106 157.549 111.233C156.755 109.361 156.357 107.318 156.357 105.105C156.357 102.892 156.755 100.849 157.549 98.9769C158.372 97.1044 159.521 95.4731 160.996 94.0829C162.471 92.6927 164.202 91.6146 166.188 90.8486C168.174 90.0826 170.33 89.6995 172.657 89.6995C175.011 89.6995 177.168 90.0826 179.125 90.8486C181.111 91.6146 182.828 92.6927 184.275 94.0829C185.75 95.4731 186.899 97.1044 187.722 98.9769C188.545 100.821 188.956 102.864 188.956 105.105C188.956 107.318 188.545 109.375 187.722 111.276C186.899 113.148 185.75 114.78 184.275 116.17C182.828 117.532 181.111 118.596 179.125 119.362C177.168 120.128 175.026 120.511 172.699 120.511ZM172.657 114.638C173.99 114.638 175.21 114.411 176.317 113.957C177.451 113.503 178.444 112.85 179.296 111.999C180.147 111.148 180.799 110.141 181.253 108.978C181.735 107.815 181.977 106.524 181.977 105.105C181.977 103.687 181.735 102.396 181.253 101.232C180.799 100.069 180.147 99.062 179.296 98.2109C178.473 97.3598 177.494 96.7072 176.359 96.2533C175.224 95.7993 173.99 95.5724 172.657 95.5724C171.323 95.5724 170.089 95.7993 168.954 96.2533C167.848 96.7072 166.869 97.3598 166.018 98.2109C165.167 99.062 164.5 100.069 164.018 101.232C163.564 102.396 163.337 103.687 163.337 105.105C163.337 106.495 163.564 107.786 164.018 108.978C164.5 110.141 165.152 111.148 165.975 111.999C166.826 112.85 167.819 113.503 168.954 113.957C170.089 114.411 171.323 114.638 172.657 114.638Z" fill="white"/>
<path d="M194.137 120V90.2102H199.84L212.522 111.233H209.5L221.969 90.2102H227.629L227.715 120H221.246L221.203 100.126H222.395L212.437 116.851H209.33L199.159 100.126H200.606V120H194.137Z" fill="white"/>
<path d="M241.123 102.211H255.465V107.573H241.123V102.211ZM241.634 114.468H257.848V120H234.782V90.2102H257.295V95.7426H241.634V114.468Z" fill="white"/>
<path d="M263.334 120V90.2102H269.036L286.612 111.659H283.846V90.2102H290.655V120H284.995L267.377 98.5514H270.143V120H263.334Z" fill="white"/>
<path d="M317.62 90.2102H324.429V106.892C324.429 110.382 323.705 113.163 322.259 115.234C320.812 117.305 318.882 118.78 316.471 119.66C314.882 120.255 313.648 120.837 312.768 121.404C311.917 121.972 311.321 122.511 310.981 123.022C310.669 123.532 310.513 124.043 310.513 124.554C310.513 125.149 310.726 125.617 311.151 125.958C311.577 126.327 312.173 126.511 312.939 126.511C313.421 126.511 313.889 126.44 314.343 126.298C314.797 126.185 315.18 126.043 315.492 125.873L316.471 128.894C315.96 129.178 315.322 129.405 314.556 129.575C313.79 129.774 312.995 129.873 312.173 129.873C310.328 129.873 308.881 129.433 307.832 128.554C306.81 127.674 306.3 126.525 306.3 125.107C306.3 124.199 306.527 123.334 306.981 122.511C307.435 121.688 308.144 120.908 309.108 120.17C310.073 119.433 311.307 118.794 312.811 118.255L312.896 120.426C312.556 120.454 312.229 120.468 311.917 120.468C311.605 120.496 311.279 120.511 310.938 120.511C306.711 120.511 303.406 119.333 301.023 116.978C298.639 114.624 297.448 111.262 297.448 106.892V90.2102H304.342V106.637C304.342 109.474 304.924 111.517 306.087 112.765C307.25 114.014 308.881 114.638 310.981 114.638C313.08 114.638 314.712 114.014 315.875 112.765C317.038 111.517 317.62 109.474 317.62 106.637V90.2102Z" fill="white"/>
<path d="M343.294 120V90.2102H356.189C358.856 90.2102 361.154 90.65 363.083 91.5295C365.012 92.3806 366.502 93.6148 367.551 95.2319C368.601 96.8491 369.126 98.7783 369.126 101.02C369.126 103.233 368.601 105.148 367.551 106.765C366.502 108.382 365.012 109.63 363.083 110.51C361.154 111.361 358.856 111.787 356.189 111.787H347.124L350.188 108.68V120H343.294ZM350.188 109.446L347.124 106.169H355.806C357.933 106.169 359.522 105.715 360.572 104.807C361.622 103.899 362.147 102.637 362.147 101.02C362.147 99.3741 361.622 98.0974 360.572 97.1895C359.522 96.2817 357.933 95.8277 355.806 95.8277H347.124L350.188 92.5508V109.446Z" fill="white"/>
<path d="M388.933 120.511C386.578 120.511 384.393 120.128 382.379 119.362C380.393 118.596 378.662 117.518 377.187 116.127C375.74 114.737 374.605 113.106 373.783 111.233C372.988 109.361 372.591 107.318 372.591 105.105C372.591 102.892 372.988 100.849 373.783 98.9769C374.605 97.1044 375.754 95.4731 377.23 94.0829C378.705 92.6927 380.436 91.6146 382.422 90.8486C384.408 90.0826 386.564 89.6995 388.89 89.6995C391.245 89.6995 393.401 90.0826 395.359 90.8486C397.345 91.6146 399.061 92.6927 400.508 94.0829C401.984 95.4731 403.133 97.1044 403.955 98.9769C404.778 100.821 405.189 102.864 405.189 105.105C405.189 107.318 404.778 109.375 403.955 111.276C403.133 113.148 401.984 114.78 400.508 116.17C399.061 117.532 397.345 118.596 395.359 119.362C393.401 120.128 391.259 120.511 388.933 120.511ZM388.89 114.638C390.224 114.638 391.444 114.411 392.55 113.957C393.685 113.503 394.678 112.85 395.529 111.999C396.38 111.148 397.033 110.141 397.487 108.978C397.969 107.815 398.21 106.524 398.21 105.105C398.21 103.687 397.969 102.396 397.487 101.232C397.033 100.069 396.38 99.062 395.529 98.2109C394.706 97.3598 393.728 96.7072 392.593 96.2533C391.458 95.7993 390.224 95.5724 388.89 95.5724C387.557 95.5724 386.323 95.7993 385.188 96.2533C384.081 96.7072 383.102 97.3598 382.251 98.2109C381.4 99.062 380.733 100.069 380.251 101.232C379.797 102.396 379.57 103.687 379.57 105.105C379.57 106.495 379.797 107.786 380.251 108.978C380.733 110.141 381.386 111.148 382.209 111.999C383.06 112.85 384.053 113.503 385.188 113.957C386.323 114.411 387.557 114.638 388.89 114.638Z" fill="white"/>
<path d="M410.371 120V90.2102H423.265C425.932 90.2102 428.23 90.65 430.16 91.5295C432.089 92.3806 433.578 93.6148 434.628 95.2319C435.678 96.8491 436.203 98.7783 436.203 101.02C436.203 103.233 435.678 105.148 434.628 106.765C433.578 108.354 432.089 109.574 430.16 110.425C428.23 111.276 425.932 111.701 423.265 111.701H414.201L417.265 108.68V120H410.371ZM429.309 120L421.861 109.191H429.223L436.756 120H429.309ZM417.265 109.446L414.201 106.212H422.882C425.01 106.212 426.599 105.758 427.649 104.85C428.699 103.914 429.223 102.637 429.223 101.02C429.223 99.3741 428.699 98.0974 427.649 97.1895C426.599 96.2817 425.01 95.8277 422.882 95.8277H414.201L417.265 92.5508V109.446Z" fill="white"/>
<path d="M447.42 120V95.8277H437.887V90.2102H463.847V95.8277H454.314V120H447.42Z" fill="white"/>
<path d="M462.145 120L475.423 90.2102H482.232L495.552 120H488.318L477.423 93.6999H480.147L469.21 120H462.145ZM468.784 113.616L470.614 108.382H485.934L487.807 113.616H468.784Z" fill="white"/>
<path d="M498.643 120V90.2102H505.537V114.382H520.475V120H498.643Z" fill="white"/>
<path d="M520.578 120L533.855 90.2102H540.664L553.985 120H546.75L535.856 93.6999H538.579L527.642 120H520.578ZM527.216 113.616L529.046 108.382H544.367L546.239 113.616H527.216Z" fill="white"/>
<path d="M566.863 120.511C564.48 120.511 562.196 120.199 560.012 119.574C557.827 118.922 556.068 118.085 554.735 117.064L557.075 111.872C558.352 112.78 559.856 113.531 561.586 114.127C563.345 114.695 565.119 114.978 566.906 114.978C568.268 114.978 569.36 114.851 570.183 114.595C571.034 114.312 571.658 113.929 572.055 113.446C572.453 112.964 572.651 112.411 572.651 111.787C572.651 110.992 572.339 110.368 571.715 109.914C571.091 109.432 570.268 109.049 569.247 108.765C568.225 108.453 567.09 108.169 565.842 107.914C564.622 107.63 563.388 107.29 562.14 106.892C560.92 106.495 559.799 105.985 558.778 105.36C557.756 104.736 556.919 103.914 556.267 102.892C555.643 101.871 555.331 100.566 555.331 98.9769C555.331 97.2747 555.785 95.7284 556.692 94.3382C557.629 92.9197 559.019 91.799 560.863 90.9762C562.735 90.1251 565.076 89.6995 567.885 89.6995C569.757 89.6995 571.601 89.9265 573.417 90.3804C575.233 90.806 576.836 91.4586 578.226 92.3381L576.098 97.5726C574.708 96.7782 573.318 96.1965 571.928 95.8277C570.538 95.4305 569.176 95.2319 567.842 95.2319C566.509 95.2319 565.417 95.388 564.565 95.7001C563.714 96.0121 563.104 96.4235 562.735 96.9342C562.367 97.4165 562.182 97.9839 562.182 98.6365C562.182 99.4025 562.494 100.027 563.118 100.509C563.743 100.963 564.565 101.332 565.587 101.615C566.608 101.899 567.729 102.183 568.949 102.467C570.197 102.75 571.431 103.077 572.651 103.445C573.9 103.814 575.034 104.311 576.056 104.935C577.077 105.559 577.9 106.382 578.524 107.403C579.177 108.425 579.503 109.715 579.503 111.276C579.503 112.95 579.035 114.482 578.098 115.872C577.162 117.262 575.758 118.383 573.885 119.234C572.041 120.085 569.701 120.511 566.863 120.511Z" fill="white"/>
<path fill-rule="evenodd" clip-rule="evenodd" d="M9.72528 59.6526C9.90148 58.3959 10.0834 57.0986 10.0502 55.8241C9.68836 56.8554 9.32452 58.13 8.94429 59.462C7.11522 65.8694 4.90702 73.605 0.716718 61.9796C0.103071 60.4672 -0.206762 58.5697 0.152947 57.7996C4.56046 44.5462 4.58691 42.2775 4.65926 36.0719C4.69693 32.8412 4.74704 28.5436 5.43422 21.0736C5.66635 18.7093 6.37528 18.6837 7.70213 18.6358C8.28549 18.6148 8.98829 18.5894 9.82253 18.359C10.7775 17.8256 11.0729 17.2183 11.488 16.365C12.275 14.7472 13.4923 12.245 20.4501 7.68472C22.9933 6.00458 25.356 4.73874 28.2807 4.54862C28.4217 4.53575 28.5632 4.52333 28.705 4.51088C30.2551 4.37481 31.8435 4.23538 33.1605 3.47509C33.7601 3.13329 34.3386 2.75171 34.9142 2.37205C36.2323 1.50256 37.5353 0.643124 39.041 0.294516C41.1992 -0.11795 46.3638 -0.00892423 51.4103 0.0976072C51.9366 0.108716 52.4615 0.119798 52.9817 0.130259C53.836 0.182679 54.5334 0.20037 55.1278 0.215448C57.8008 0.28325 58.3905 0.298207 61.7919 3.18072C63.3489 3.10358 64.5588 2.8737 65.6024 2.67543C68.5183 2.12146 70.1358 1.81414 74.3964 5.77351C74.9273 6.13938 75.4974 6.50475 76.1493 6.51303C77.0054 6.40246 77.7609 5.73431 78.6145 4.97943C80.1787 3.59603 82.0723 1.92132 85.5184 2.85324C86.3033 3.06906 87.0606 3.43555 87.8188 3.80248C89.0519 4.39925 90.2873 4.99715 91.6474 4.94974C93.2721 5.02236 94.9704 4.892 96.681 4.7607C99.2362 4.56457 101.819 4.36632 104.225 4.8394C105.692 4.92027 106.858 5.86962 107.996 6.79676C109.608 8.10884 111.164 9.37644 113.444 8.075L113.452 8.07203C114.483 7.67654 115.466 7.29961 116.503 7.25372C117.759 7.1232 118.943 7.39158 120.114 7.65711C121.424 7.95392 122.717 8.24715 124.079 7.97565C125.086 7.96053 126.34 6.5821 127.785 4.9955C130.504 2.00804 133.895 -1.71748 137.569 1.53032C138.762 2.82823 139.785 4.41621 140.83 6.03729C142.339 8.37903 143.892 10.7898 146.064 12.4951C148.176 13.56 150.511 13.796 152.951 14.0426C156.543 14.4057 160.361 14.7916 164.028 17.8787C165.23 18.8306 166.232 19.7814 167.263 20.7603C169.399 22.7887 171.663 24.9381 176.108 27.4687C176.884 27.9181 177.584 28.4344 178.228 29H172.529C171.681 28.4508 170.705 27.8455 169.572 27.1671C168.159 26.1243 166.908 24.9205 165.652 23.7112C164.507 22.6097 163.358 21.5036 162.077 20.5103C159.421 18.0558 155.811 17.6574 152.258 17.2654C148.956 16.901 145.704 16.5422 143.313 14.5436C141.165 12.5467 139.758 10.3753 138.417 8.30545C137.323 6.61643 136.272 4.99497 134.898 3.591C133.072 3.84528 131.824 5.33063 130.474 6.93662C128.558 9.2164 126.438 11.7393 122.169 11.3288C121.283 11.245 120.556 11.0835 119.751 10.9048C119.534 10.8566 119.311 10.8072 119.079 10.7577C117.295 10.1813 115.85 10.705 114.402 11.2299C112.25 12.01 110.091 12.7925 106.804 9.96863L106.747 9.91867C105.809 9.09534 104.816 8.22394 103.643 8.07903C101.633 7.68238 99.3223 7.85723 97.0865 8.02641C97.0146 8.03185 96.9428 8.03728 96.8711 8.04269C91.3997 8.96314 88.6074 7.70073 86.5422 6.76708C84.9593 6.05146 83.8036 5.52897 82.1962 6.33053C81.6076 6.71723 81.0819 7.17288 80.5606 7.62482C79.7049 8.36654 78.8607 9.09823 77.7689 9.49858C75.1731 10.4977 73.3903 9.08024 71.5149 7.58918C70.6052 6.86589 69.6737 6.12527 68.6171 5.63475C67.5565 5.6461 66.499 5.84755 65.4576 6.04595C62.8629 6.54023 60.3678 7.01553 58.1741 4.48473C57.5493 3.87782 56.9772 3.59144 56.6856 3.62265C54.1333 3.31238 44.8081 3.20658 41.2246 3.35926C39.8138 3.15445 38.4884 4.00824 36.9341 5.00939C35.7034 5.80209 34.3293 6.68717 32.656 7.21233C31.6106 7.45929 30.7149 7.54904 29.8436 7.63634C26.8123 7.94007 24.0768 8.21415 16.3692 14.9749C15.4593 15.9177 14.9061 16.9392 14.385 17.9012C13.3025 19.9 12.3588 21.6424 8.64468 21.8894C8.11421 25.6582 8.0592 30.3007 8.00898 34.5393C7.98841 36.2752 7.96864 37.9434 7.91734 39.456C7.94059 43.5124 5.92097 50.5565 4.1096 56.3145C3.95362 56.8974 3.79203 57.32 3.65716 57.6727C3.20448 58.8564 3.05271 59.2533 4.4242 62.2866C5.15866 60.2003 5.69993 58.467 6.19096 56.8945C7.01523 54.2548 7.69792 52.0686 8.91527 49.4276C11.7347 46.7376 12.665 51.5352 13.1039 53.7983C13.134 53.9538 13.1619 54.0974 13.1878 54.2257C13.637 55.5164 13.355 57.1744 13.069 58.8564C12.6417 61.3692 12.2052 63.9355 14.1837 65.4108C20.0093 70.1488 23.7455 72.6239 30.8741 74.9885C31.3989 75.2067 31.8756 75.3958 32.317 75.5709C35.2044 76.7165 36.583 77.2634 40.0791 81.4216C43.7013 78.6237 44.8907 79.1049 49.5804 81.0021C49.6967 81.0492 49.8152 81.0971 49.9359 81.1459C51.0075 81.4953 52.0652 81.3021 52.8112 80.4006C55.5537 77.5765 58.8994 76.672 61.2011 81.1988C61.5753 82.0062 61.8017 82.7469 62.0184 83.456C62.4778 84.959 62.8938 86.3199 64.5822 87.8731C70.8626 93.7423 68.9318 96.6536 66.3663 100.522C64.7802 102.913 62.9516 105.671 62.6706 109.719C62.6503 109.947 62.6269 110.186 62.6025 110.435C62.3703 112.81 62.0553 116.029 63.5709 118.241C64.5961 119.586 66.0214 120.341 67.5298 121.14C68.4597 121.632 69.4211 122.142 70.3398 122.816C71.0305 123.31 71.6093 123.853 72.1795 124.387C73.307 125.444 74.4009 126.469 76.259 127.025C76.8037 127.201 77.3259 127.359 77.8296 127.512C81.741 128.699 84.5391 129.548 88.0955 135.51L88.1314 135.571C91.6667 141.563 91.8416 141.86 91.7652 148.952C91.9251 150.316 93.347 151.169 94.8162 150.395C95.7475 149.989 96.4465 149.625 97.0473 149.312C98.9988 148.296 99.915 147.819 104.39 148.176C105.339 148.19 106.129 147.874 106.877 147.575C106.976 147.536 107.075 147.496 107.173 147.458C110.937 145.79 113.15 146.07 116.79 149.317C116.821 149.341 116.852 149.365 116.882 149.389C117.583 149.941 118.303 150.508 119.117 150.457C120.152 150.361 121.378 149.534 122.699 148.643C123.88 147.846 125.137 146.998 126.4 146.577C127.471 146.166 128.813 146.191 130.154 146.216C131.306 146.237 132.457 146.259 133.438 146.005C134.016 145.756 133.802 145.188 133.531 144.465C133.422 144.176 133.304 143.863 133.224 143.536L133.196 143.451C132.734 142.067 132.362 140.955 132.673 139.697C133.827 136.765 136.796 136.637 139.692 136.511C140.919 136.458 142.134 136.406 143.191 136.14C144.853 135.563 145.863 134.205 146.846 132.883C147.128 132.503 147.408 132.127 147.701 131.773C148.756 130.49 149.828 129.394 151.482 128.685C158.521 125.008 161.14 129.557 162.995 132.78C164.58 135.533 165.607 137.318 168.356 132.182C168.366 131.169 167.021 130.645 165.417 130.02C162.489 128.878 158.697 127.4 160.697 122H164.187C163.693 123.08 163.421 124.192 163.575 125.366C164.473 126.093 165.419 126.47 166.408 126.864C166.949 127.08 167.503 127.301 168.07 127.587C170.057 128.494 171.551 129.943 171.655 131.619C172.07 134.209 166.863 141.86 162.445 137.531C161.214 136.328 160.435 134.973 159.751 133.785C158.097 130.907 157.001 129.003 151.417 132.582C150.446 133.626 149.704 134.552 149.054 135.362C146.588 138.437 145.452 139.853 138.186 139.817C137.347 139.893 136.491 140.091 135.861 140.62C135.825 140.945 136.028 141.531 136.278 142.253C137.131 144.72 138.533 148.776 132.844 149.44C132.085 149.519 131.308 149.496 130.548 149.474C129.201 149.435 127.908 149.398 126.863 149.928C126.132 150.282 125.355 150.801 124.543 151.344C122.586 152.65 120.428 154.09 118.239 153.691C116.853 153.572 115.705 152.623 114.573 151.687C113.01 150.394 111.478 149.128 109.393 150.107C106.723 151.393 105.717 151.397 103.139 151.405C102.392 151.407 101.512 151.41 100.421 151.445C99.6119 151.666 98.7769 152.1 97.914 152.548C96.2501 153.412 94.4825 154.33 92.5971 153.883C88.4047 152.588 88.4309 149.898 88.466 146.298C88.4725 145.636 88.4792 144.943 88.4601 144.222C88.1289 141.236 85.0409 136.435 82.88 133.867C81.1273 131.953 79.6439 131.525 77.8334 131.003C75.5173 130.335 72.6659 129.513 68.0304 125.225C67.2618 124.748 66.5086 124.328 65.786 123.925C61.6954 121.644 58.5866 119.911 59.2255 111.364C59.4282 104.649 61.8406 101.308 63.5939 98.8792C65.1778 96.6856 66.2239 95.2367 64.6179 92.7185C64.0263 91.9632 63.3339 91.2604 62.6492 90.5654C61.6196 89.5204 60.6076 88.4932 59.9825 87.3323C57.6551 80.2822 57.1081 80.8311 55.6331 82.3114C54.2266 83.7228 51.9764 85.9809 46.5345 83.306C44.4751 82.3314 43.8761 82.7652 42.8991 83.4727C42.2857 83.9169 41.5233 84.4691 40.1567 84.8484C38.8652 85.0475 37.9134 83.9703 36.7453 82.6483C35.5211 81.2627 34.0593 79.6083 31.7198 78.873C30.6474 78.4068 29.5193 77.9948 28.3429 77.5652C25.0822 76.3744 21.4507 75.0482 17.6071 72.0563C17.1641 71.7383 16.6838 71.411 16.184 71.0704C14.0614 69.6238 11.5892 67.9391 10.1498 65.7258C9.10298 64.0908 9.4047 61.939 9.72528 59.6526Z" fill="#ECF7FE"/>
</svg>
